<svg xmlns="http://www.w3.org/2000/svg" width="20" height="20" viewBox="0 0 20 20">
  <g id="link" transform="translate(-0.488 -0.488)">
    <rect id="Rectangle_1784" data-name="Rectangle 1784" width="20" height="20" transform="translate(0.488 0.488)" fill="none"/>
    <g id="placeholder" transform="translate(-57.103 1.835)">
      <g id="Group_3396" data-name="Group 3396" transform="translate(61)">
        <path id="Path_4914" data-name="Path 4914" d="M67.591,0A6.6,6.6,0,0,0,61,6.591a6.532,6.532,0,0,0,1.315,3.951l4.87,6.559c.012.016.031.022.044.036A.491.491,0,0,0,68,17.1c1.4-1.871,3.973-5.366,4.961-6.684v0l.006-.008A6.591,6.591,0,0,0,67.591,0Zm0,10.147a3.556,3.556,0,1,1,3.556-3.556A3.565,3.565,0,0,1,67.591,10.147Z" transform="translate(-61 0)" fill="#0e1013"/>
      </g>
    </g>
  </g>
</svg>
