<svg xmlns="http://www.w3.org/2000/svg" width="18" height="18" viewBox="0 0 18 18">
  <g id="chat" transform="translate(-1509.43 -127.43)">
    <rect id="Rectangle_6" data-name="Rectangle 6" width="18" height="18" transform="translate(1509.43 127.43)" fill="none"/>
    <path id="messenger" d="M8.2,0A8.2,8.2,0,0,0,1.087,12.279L.031,15.56a.64.64,0,0,0,.806.806l3.28-1.056A8.2,8.2,0,1,0,8.2,0Zm0,15.116a6.9,6.9,0,0,1-3.661-1.048A.641.641,0,0,0,4,14l-2.368.763L2.4,12.4a.641.641,0,0,0-.067-.536A6.918,6.918,0,1,1,8.2,15.116ZM9,8.2a.8.8,0,1,1-.8-.8A.8.8,0,0,1,9,8.2Zm3.2,0a.8.8,0,1,1-.8-.8A.8.8,0,0,1,12.2,8.2Zm-6.4,0A.8.8,0,1,1,5,7.4.8.8,0,0,1,5.8,8.2Zm0,0" transform="translate(1510.231 128.231)" fill="#0e1013"/>
  </g>
</svg>
