<svg xmlns="http://www.w3.org/2000/svg" width="14" height="14" viewBox="0 0 14 14">
  <g id="arrow" transform="translate(240.747 -1525.747) rotate(90)">
    <rect id="Rectangle_1789" data-name="Rectangle 1789" width="14" height="14" transform="translate(1525.747 226.747)" fill="none"/>
    <path id="Path_4842" data-name="Path 4842" d="M627.218,557.641l-4.651,4.485a.543.543,0,0,0,0,.805.591.591,0,0,0,.835,0l5.068-4.887a.543.543,0,0,0,0-.805l-5.068-4.887a1.31,1.31,0,0,0-.3-.173h-.3c-.119,0-.179.058-.3.173a1.237,1.237,0,0,0-.179.287v.288c0,.115.06.172.179.287Z" transform="translate(907.258 -323.895)" fill="#0e1013"/>
  </g>
</svg>
