<svg xmlns="http://www.w3.org/2000/svg" width="22" height="22" viewBox="0 0 22 22">
  <g id="Group_3122" data-name="Group 3122" transform="translate(-42.891 -10.891)">
    <rect id="Rectangle_1852" data-name="Rectangle 1852" width="22" height="22" transform="translate(42.891 10.891)" fill="none"/>
    <path id="Path_4850" data-name="Path 4850" d="M10341.456-4827.1a.6.6,0,0,1-.455-.586v-.331a11.034,11.034,0,0,1,3.241-7.838,11.036,11.036,0,0,1,7.595-3.273v-3.265a.607.607,0,0,1,.367-.559.621.621,0,0,1,.241-.051.6.6,0,0,1,.417.167l6.966,6.58a.609.609,0,0,1,.19.44.618.618,0,0,1-.188.442l-6.968,6.579a.6.6,0,0,1-.417.168.594.594,0,0,1-.241-.051.608.608,0,0,1-.367-.558v-3.261h-1.038a9.9,9.9,0,0,0-8.658,5.1.609.609,0,0,1-.533.313A.566.566,0,0,1,10341.456-4827.1Zm.932-2.76a11.193,11.193,0,0,1,3.4-2.656,11.161,11.161,0,0,1,5.014-1.2h1.646a.608.608,0,0,1,.606.609v2.459l5.473-5.169-5.473-5.167v2.458a.608.608,0,0,1-.606.609h-.333A9.871,9.871,0,0,0,10342.388-4829.859Z" transform="translate(-10296.618 4856.931)" fill="#0e1013"/>
  </g>
</svg>
