<svg xmlns="http://www.w3.org/2000/svg" width="150" height="150" viewBox="0 0 150 150">
  <g id="Group_3457" data-name="Group 3457" transform="translate(-1065 -2720)">
    <rect id="Rectangle_1945" data-name="Rectangle 1945" width="150" height="150" transform="translate(1065 2720)" fill="none"/>
    <path id="Path_4919" data-name="Path 4919" d="M1793.9,1215.992a54.4,54.4,0,0,0-2.813-10.983c-4.24-11.251-5.354-20.224-5.356-26.6a43.783,43.783,0,0,1,.767-8.513c.188-.943.373-1.642.5-2.088.065-.222.117-.382.149-.476.016-.047.027-.078.032-.094l0-.007v0h0a2.994,2.994,0,0,0-3.563-3.955,29.987,29.987,0,0,0-3.813,1.377,41.409,41.409,0,0,0-5.982,3.168,38.88,38.88,0,0,0-5.161,3.931,34.275,34.275,0,0,0-7.106,8.952,34.675,34.675,0,0,0-4.016,13.117c-.24,2.275-.5,4.89-.81,7.764a52.878,52.878,0,0,1-.81-8.987,36.153,36.153,0,0,1,.632-7.027c.154-.775.305-1.345.411-1.7.053-.18.094-.307.119-.379l.024-.069,0,0h0a2.994,2.994,0,0,0-3.564-3.952,25.3,25.3,0,0,0-3.259,1.175,35.177,35.177,0,0,0-5.076,2.687,33.033,33.033,0,0,0-4.383,3.339,29.153,29.153,0,0,0-6.046,7.619,29.491,29.491,0,0,0-3.418,11.157c-.346,3.277-.735,7.387-1.317,12a161.133,161.133,0,0,1-4.371,22.833,92.123,92.123,0,0,1-4.011,11.569,66.1,66.1,0,0,1-3.125,6.359,86.732,86.732,0,0,1-8.294-15.959c-4.309-10.671-7.08-22.324-8.965-32.906-.944-5.293-1.668-10.318-2.26-14.828s-1.054-8.5-1.476-11.757a22.555,22.555,0,0,0-2.308-7.338,29.045,29.045,0,0,0-3.649-5.458,44.455,44.455,0,0,0-8.357-7.544,74.5,74.5,0,0,0-12.687-7.12c-3.553-1.58-6.009-2.38-6.084-2.4a3.01,3.01,0,0,0-3.357,4.69l0,0a7.108,7.108,0,0,1,.652,1.949,29.245,29.245,0,0,1,.553,6.259,83.651,83.651,0,0,1-1.142,12.711,200.833,200.833,0,0,1-4.478,20.565,97.326,97.326,0,0,0-2.9,24.812,162.141,162.141,0,0,0,1.725,22.79c1.031,7.2,2.4,13.822,3.771,19.336a3,3,0,0,0,2.906,2.275h123.473a2.994,2.994,0,0,0,2.886-2.2c1.374-4.98,2.913-11.057,4.11-17.678a119.125,119.125,0,0,0,2.058-20.977A75.774,75.774,0,0,0,1793.9,1215.992Zm-65.113,34.148a131.574,131.574,0,0,0,6.142-24.519c.625-3.879,1.094-7.555,1.472-10.869s.665-6.268.92-8.688a24.557,24.557,0,0,1,1.267-5.673,22.341,22.341,0,0,1,4.332-7.341,25.507,25.507,0,0,1,4.128-3.736,28.681,28.681,0,0,1,3.18-2,45.884,45.884,0,0,0-.294,5.282,68.727,68.727,0,0,0,4.813,24.137,162.463,162.463,0,0,1-5.286,23.072,101.162,101.162,0,0,1-4.441,11.641,70.777,70.777,0,0,1-5.9,10.532h0l-.207.3H1723.1A75.379,75.379,0,0,0,1728.783,1250.14Zm-39.507-73.147a18.7,18.7,0,0,1,1.508,3.169,15.848,15.848,0,0,1,.819,3.351c.552,4.25,1.191,9.969,2.126,16.508a225.135,225.135,0,0,0,6.962,33.025,125.638,125.638,0,0,0,6.413,16.977,85.343,85.343,0,0,0,6.972,12.256h-5.307l-.215-.35v0a89.388,89.388,0,0,1-8.612-19.487,165.4,165.4,0,0,1-4.3-16.543c-1.756-8.382-2.963-16.729-3.855-24.187-.446-3.729-.813-7.236-1.131-10.417s-.587-6.037-.838-8.473a27.634,27.634,0,0,0-1.725-7.138c-.142-.367-.293-.728-.448-1.086A23.25,23.25,0,0,1,1689.276,1176.992Zm-27.837,68.815a156.288,156.288,0,0,1-1.664-21.94,91.444,91.444,0,0,1,2.7-23.271,206.644,206.644,0,0,0,4.608-21.185,89.489,89.489,0,0,0,1.213-13.632c0-1.525-.063-2.86-.169-4.037.859.558,1.768,1.183,2.7,1.878a45.211,45.211,0,0,1,4.359,3.684,32.607,32.607,0,0,1,5.7,7.172,24.107,24.107,0,0,1,1.934,4.256,21.464,21.464,0,0,1,1.031,4.7c.44,4.258.948,9.971,1.69,16.5a275.779,275.779,0,0,0,5.522,32.945,146.7,146.7,0,0,0,5.082,16.918,92.39,92.39,0,0,0,5.672,12.481h-37.276C1663.409,1257.428,1662.3,1251.817,1661.439,1245.807Zm125.325,1.517c-.984,5.442-2.216,10.541-3.394,14.955h-37.321a80.626,80.626,0,0,0,4.412-8.339,115.83,115.83,0,0,0,6.529-18.627,184.152,184.152,0,0,0,3.792-18.412h0c.7-4.446,1.227-8.654,1.658-12.455s.76-7.2,1.057-10a29.957,29.957,0,0,1,1.545-6.916,27.294,27.294,0,0,1,5.29-8.964,30.98,30.98,0,0,1,5.028-4.552,35.063,35.063,0,0,1,4.867-2.959,52.934,52.934,0,0,0-.489,7.35c0,7.08,1.249,16.8,5.742,28.715a48.457,48.457,0,0,1,2.5,9.775,69.754,69.754,0,0,1,.751,10.517A113.132,113.132,0,0,1,1786.764,1247.324Z" transform="translate(-584.251 1584.499)" fill="#0e1013"/>
  </g>
</svg>
