<svg xmlns="http://www.w3.org/2000/svg" width="150" height="150" viewBox="0 0 150 150">
  <g id="Group_3458" data-name="Group 3458" transform="translate(-1065 -2720)">
    <rect id="Rectangle_1945" data-name="Rectangle 1945" width="150" height="150" transform="translate(1065 2720)" fill="none"/>
    <path id="Path_4925" data-name="Path 4925" d="M3664,402.413a65.413,65.413,0,1,1,65.413,65.413A65.487,65.487,0,0,1,3664,402.413Zm6.644,0a58.769,58.769,0,1,0,58.769-58.768A58.836,58.836,0,0,0,3670.644,402.413Zm30.893,19.149a3.322,3.322,0,0,1,4.949-4.432,30.9,30.9,0,0,0,45.852,0,3.322,3.322,0,0,1,4.95,4.431,37.541,37.541,0,0,1-55.752,0Zm58.421-24.794a7.967,7.967,0,0,0-15.933,0,3.322,3.322,0,1,1-6.645,0,14.611,14.611,0,0,1,29.223,0,3.322,3.322,0,1,1-6.645,0Zm-45.156,0a7.967,7.967,0,0,0-15.934,0,3.322,3.322,0,1,1-6.645,0,14.612,14.612,0,0,1,29.224,0,3.322,3.322,0,1,1-6.645,0Z" transform="translate(-2589.413 2392.587)" fill="#0e1013"/>
  </g>
</svg>
