<svg xmlns="http://www.w3.org/2000/svg" width="150" height="150" viewBox="0 0 150 150">
  <g id="Group_3462" data-name="Group 3462" transform="translate(-1065 -2720)">
    <rect id="Rectangle_1945" data-name="Rectangle 1945" width="150" height="150" transform="translate(1065 2720)" fill="none"/>
    <g id="cake" transform="translate(1077.151 2732.15)">
      <path id="Path_4924" data-name="Path 4924" d="M104.244,10.822a3.683,3.683,0,0,0-3.086-.3c-10.5,3.676-20.973,7.322-29.362,10.239A18.406,18.406,0,0,0,61.58,15.051,19.448,19.448,0,0,0,51.048.909L50.011.391a3.682,3.682,0,1,0-3.294,6.587l1.037.518a12.134,12.134,0,0,1,6.322,7.7A18.445,18.445,0,0,0,39.821,31.871c-12,4.17-24.734,8.6-37.354,13.019A3.682,3.682,0,0,0,0,48.365H0v39.28H0a3.681,3.681,0,0,0,2.468,3.478l98.692,34.37a3.682,3.682,0,0,0,2.5-.029c.1-.025.225-.052.372-.086a29.51,29.51,0,0,0,12.337-5.744c6.185-5.084,9.321-12.543,9.321-22.168v-49.1c0-1.017-.244-25.045-21.453-37.543ZM58.184,22.1A11.048,11.048,0,1,1,47.136,33.144,11.06,11.06,0,0,1,58.184,22.1ZM40.838,39.314A18.409,18.409,0,0,0,75.616,27.228c7.687-2.674,16.943-5.9,26.312-9.175,16.212,10.625,16.4,30.112,16.4,30.313,0,17.081-12.306,27.316-16.471,30.289L81.5,71.526A3.683,3.683,0,0,0,76.6,75V90.1a3.683,3.683,0,0,1-7.365,0V69.847a3.682,3.682,0,0,0-2.475-3.479L14.877,48.354c8.8-3.073,17.553-6.117,25.962-9.039Zm21.028,45L7.365,65.386V53.542l54.5,18.924ZM7.365,73.182l54.7,18.993A11.036,11.036,0,0,0,80.1,98.482l18.592,6.507v11.845L7.365,85.029Zm91.327,24L83.8,91.973a11.053,11.053,0,0,0,.162-1.872V80.193l14.73,5.156Zm19.64.28c0,10.073-4.026,16.529-12.275,19.634V84.714a50.068,50.068,0,0,0,12.275-12.552Z" transform="translate(0 0)" fill="#0e1013"/>
      <circle id="Ellipse_19" data-name="Ellipse 19" cx="3.5" cy="3.5" r="3.5" transform="translate(97.849 28.85)" fill="#0e1013"/>
      <circle id="Ellipse_20" data-name="Ellipse 20" cx="3.5" cy="3.5" r="3.5" transform="translate(102.849 45.85)" fill="#0e1013"/>
      <ellipse id="Ellipse_21" data-name="Ellipse 21" cx="4" cy="3.5" rx="4" ry="3.5" transform="translate(89.849 60.85)" fill="#0e1013"/>
      <circle id="Ellipse_22" data-name="Ellipse 22" cx="3.5" cy="3.5" r="3.5" transform="translate(82.849 43.85)" fill="#0e1013"/>
    </g>
  </g>
</svg>
