<svg xmlns="http://www.w3.org/2000/svg" width="20" height="20" viewBox="0 0 20 20">
  <g id="ins" transform="translate(-0.488 -0.488)">
    <rect id="Rectangle_1784" data-name="Rectangle 1784" width="20" height="20" transform="translate(0.488 0.488)" fill="none"/>
    <g id="instagram_4_" data-name="instagram (4)" transform="translate(2.05 2.05)">
      <path id="Path_4902" data-name="Path 4902" d="M-1180.772-26.743c-1.6-1.6-1.415-3.734-1.415-7.017,0-3.207-.208-5.395,1.415-7.018a5.04,5.04,0,0,1,3.541-1.365c1.554-.069,5.4-.072,6.953,0,3.176.146,4.766,1.943,4.905,4.9.069,1.555.073,5.4,0,6.953-.116,2.51-1.3,3.907-2.859,4.514-1.149.445-2.271.443-5.523.443-.657,0-1.274.009-1.853.009C-1177.819-25.318-1179.481-25.452-1180.772-26.743Zm12.952-1.073c1.046-1.051.979-2.469.98-5.945,0-2.252-.01-2.519-.049-3.408-.177-3.9-3.117-3.507-6.864-3.507l-.032-.021c-2.255,0-2.519.01-3.414.042-3.9.2-3.5,3-3.5,6.883,0,2.871-.215,4.764.971,5.944,1.028,1.032,2.438.98,5.955.98C-1170.36-26.847-1168.885-26.752-1167.82-27.816Zm-10.266-5.944a4.33,4.33,0,0,1,4.331-4.33,4.33,4.33,0,0,1,4.33,4.33,4.331,4.331,0,0,1-4.33,4.33A4.33,4.33,0,0,1-1178.085-33.76Zm1.52,0a2.81,2.81,0,0,0,2.811,2.811,2.809,2.809,0,0,0,2.81-2.811,2.811,2.811,0,0,0-2.81-2.811A2.811,2.811,0,0,0-1176.566-33.76Zm6.3-4.5a1.012,1.012,0,0,1,1.012-1.012,1.012,1.012,0,0,1,1.012,1.012,1.012,1.012,0,0,1-1.012,1.012A1.012,1.012,0,0,1-1170.265-38.261Z" transform="translate(1182.196 42.195)" fill="#0e1013"/>
    </g>
  </g>
</svg>
