<svg xmlns="http://www.w3.org/2000/svg" width="20" height="20" viewBox="0 0 20 20">
  <g id="link" transform="translate(-0.488 -0.488)">
    <rect id="Rectangle_1784" data-name="Rectangle 1784" width="20" height="20" transform="translate(0.488 0.488)" fill="none"/>
    <g id="_x31_0.Linkedin" transform="translate(-7.95 -7.95)">
      <path id="Path_4903" data-name="Path 4903" d="M49.207,46.84V40.658c0-3.038-.654-5.358-4.2-5.358A3.663,3.663,0,0,0,41.7,37.114h-.042v-1.54H38.3V46.84h3.5v-5.59c0-1.477.274-2.89,2.089-2.89,1.793,0,1.814,1.667,1.814,2.975v5.485h3.5Z" transform="translate(-22.33 -19.963)" fill="#0e1013"/>
      <path id="Path_4904" data-name="Path 4904" d="M11.3,36.6h3.5V47.865H11.3Z" transform="translate(-1.026 -20.988)" fill="#0e1013"/>
      <path id="Path_4905" data-name="Path 4905" d="M12.025,10a2.036,2.036,0,1,0,2.025,2.025A2.026,2.026,0,0,0,12.025,10Z" fill="#0e1013"/>
    </g>
  </g>
</svg>
