<svg xmlns="http://www.w3.org/2000/svg" width="180" height="44" viewBox="0 0 180 44">
  <g id="smartblogo" transform="translate(-724.179 -626.193)">
    <rect id="Rectangle_1531" data-name="Rectangle 1531" width="180" height="44" transform="translate(724.179 626.193)" fill="none"/>
    <g id="Group_2499" data-name="Group 2499" transform="translate(776.645 632.053)">
      <path id="Path_2105" data-name="Path 2105" d="M512.9,1270.169a14.373,14.373,0,0,1-4.592-.811c-.129-.077-.309-.18-.232-.36l.283-1.338c.051-.18.154-.283.283-.283a.5.5,0,0,1,.18.026,13.9,13.9,0,0,0,3.9.656c1.7,0,2.817-.527,2.817-1.878,0-1.724-1.222-1.62-2.945-1.981-1.8-.283-4.386-.759-4.386-3.948,0-3.473,3.087-4.052,5.325-4.052a15.343,15.343,0,0,1,4.1.553.327.327,0,0,1,.283.386l-.232,1.363c-.026.18-.154.258-.36.232a20.808,20.808,0,0,0-3.447-.425c-1.415,0-2.817.36-2.817,1.749,0,1.441,1.389,1.646,2.945,1.852,2.109.334,4.386.682,4.386,4.026C518.4,1269.23,515.869,1270.169,512.9,1270.169Z" transform="translate(-508.056 -1250.77)" fill="#0e1013"/>
      <path id="Path_2106" data-name="Path 2106" d="M637.177,1269.549a.341.341,0,0,1-.386.386h-2.084c-.283,0-.412-.129-.412-.386v-9.094c0-1.595-.6-2.084-2.135-2.084a17.967,17.967,0,0,0-3.756.527v10.65a.341.341,0,0,1-.386.386H625.91a.341.341,0,0,1-.386-.386v-9.094c0-1.595-.579-2.084-2.109-2.084a18.963,18.963,0,0,0-3.807.527v10.65a.341.341,0,0,1-.386.386h-2.109c-.283,0-.412-.128-.412-.386v-10.766c0-.939.36-1.364,1.7-1.775a20.573,20.573,0,0,1,5.222-.708,5.29,5.29,0,0,1,3.421.913,17.764,17.764,0,0,1,5.377-.913c3.087,0,4.682.862,4.682,3.782v9.467Z" transform="translate(-602.725 -1250.857)" fill="#0e1013"/>
      <path id="Path_2107" data-name="Path 2107" d="M816.379,1267.172c0,1.852-.5,2.225-2.251,2.637a14.72,14.72,0,0,1-3.422.36c-2.534,0-6.007-.181-6.007-4.258,0-3.318,1.981-3.576,4.206-3.975l4.618-.759v-.939c0-.784-.052-1.312-.785-1.62a5.707,5.707,0,0,0-2.084-.257,18.339,18.339,0,0,0-4.437.708.586.586,0,0,1-.18.026.334.334,0,0,1-.309-.231l-.309-1.389c-.077-.283.1-.36.283-.437a19.286,19.286,0,0,1,5.454-.836,8.008,8.008,0,0,1,3.782.682c1.312.733,1.441,1.93,1.441,3.267Zm-6.714-3.37c-1.042.206-2.032.309-2.032,2.058,0,2.148,1.8,2.328,3.138,2.328a8.08,8.08,0,0,0,2.74-.412v-4.618Z" transform="translate(-766.544 -1250.77)" fill="#0e1013"/>
      <path id="Path_2108" data-name="Path 2108" d="M924.213,1258.831c0-1.042.45-1.338,1.543-1.723a16.783,16.783,0,0,1,4.991-.708c.309,0,.579.052.579.438v1.44c0,.206-.052.386-.36.386a14.466,14.466,0,0,0-3.872.412v10.573a.341.341,0,0,1-.386.386h-2.122a.341.341,0,0,1-.386-.386v-10.818Z" transform="translate(-870.673 -1250.944)" fill="#0e1013"/>
      <path id="Path_2109" data-name="Path 2109" d="M1015.973,1240.766c.077.335-.052.45-.257.527a9.359,9.359,0,0,1-3.139.45c-2.74,0-4.077-1.068-4.077-3.807v-13.377c0-.232.129-.386.412-.425l2.058-.437c.309-.077.437.155.437.386v4.1h3.846a.341.341,0,0,1,.386.385v1.389a.341.341,0,0,1-.386.386h-3.846v7.627c0,1.222.553,1.647,1.878,1.647a10.309,10.309,0,0,0,2.084-.283c.206-.052.334.026.386.257Z" transform="translate(-944.13 -1222.435)" fill="#0e1013"/>
      <path id="Path_2110" data-name="Path 2110" d="M1157.278,1233.381a16.956,16.956,0,0,1-4.489-.579c-1.312-.411-1.389-1.093-1.389-2.109V1214.86a.411.411,0,0,1,.386-.451l2.083-.411c.309-.077.437.154.437.386v4.206l-.012,1.415a14.247,14.247,0,0,1,3.691-.579c4.078,0,5.454,1.981,5.454,6.869C1163.4,1231.169,1162.166,1233.381,1157.278,1233.381Zm.116-11.859a16.945,16.945,0,0,0-3.113.476v8.965a10.113,10.113,0,0,0,2.817.36c2.534,0,3.37-1.068,3.37-4.965C1160.468,1222.5,1159.838,1221.522,1157.394,1221.522Z" transform="translate(-1068.649 -1213.982)" fill="#0e1013"/>
      <path id="Path_2111" data-name="Path 2111" d="M1285.781,1263.544a4.266,4.266,0,0,1-.026.6.448.448,0,0,1-.425.476h-8.823a3.245,3.245,0,0,0,.939,2.534,4.478,4.478,0,0,0,3.267.913,12.937,12.937,0,0,0,3.627-.6.379.379,0,0,1,.18-.026c.18,0,.258,0,.335.283l.257,1.145a.451.451,0,0,1,.026.154.4.4,0,0,1-.283.36,12.676,12.676,0,0,1-4.515.785c-4.965,0-6.74-2.11-6.74-6.946,0-4.566,1.145-7.023,6.135-7.023,2.611,0,4.129.708,5.042,2.032a8.266,8.266,0,0,1,1.016,4.708v.6Zm-2.92-.913a9.1,9.1,0,0,0-.232-2.405c-.386-1.518-1.2-1.981-2.92-1.981-1.852,0-2.663.5-3,1.929a11.083,11.083,0,0,0-.232,2.457Z" transform="translate(-1175.132 -1250.77)" fill="#0e1013"/>
      <path id="Path_2112" data-name="Path 2112" d="M1409.381,1263.544a4.286,4.286,0,0,1-.026.6.448.448,0,0,1-.424.476h-8.824a3.246,3.246,0,0,0,.939,2.534,4.479,4.479,0,0,0,3.267.913,12.934,12.934,0,0,0,3.627-.6.38.38,0,0,1,.18-.026c.18,0,.257,0,.335.283l.257,1.145a.453.453,0,0,1,.026.154.4.4,0,0,1-.283.36,12.673,12.673,0,0,1-4.515.785c-4.965,0-6.74-2.11-6.74-6.946,0-4.566,1.144-7.023,6.135-7.023,2.611,0,4.129.708,5.042,2.032a8.264,8.264,0,0,1,1.016,4.708v.6Zm-2.92-.913a9.1,9.1,0,0,0-.231-2.405c-.386-1.518-1.2-1.981-2.92-1.981-1.852,0-2.663.5-3,1.929a11.046,11.046,0,0,0-.231,2.457Z" transform="translate(-1282.833 -1250.77)" fill="#0e1013"/>
    </g>
    <g id="Group_2502" data-name="Group 2502" transform="translate(724.18 626.193)">
      <rect id="Rectangle_1537" data-name="Rectangle 1537" width="47" height="44" transform="translate(0 0)" fill="none"/>
      <path id="Path_4843" data-name="Path 4843" d="M11959.429,7006.239a.8.8,0,0,1-.69-.4l-1.812-3.14a.811.811,0,0,1,0-.795l1.815-3.145a.787.787,0,0,1,.688-.4h3.626a.79.79,0,0,1,.69.4l1.813,3.14a.807.807,0,0,1,0,.795l-1.813,3.144a.792.792,0,0,1-.689.4Zm-.89-3.94,1.352,2.347h2.711l1.352-2.347-1.352-2.344h-2.711Zm-19.182.79a.8.8,0,0,1-.691-.4l-5.381-9.322a.816.816,0,0,1,0-.795l5.385-9.324,5.4-9.346a.847.847,0,0,1,.178-.21l.026-.026.021-.012.048-.032c.012-.007.026-.012.038-.017l.01-.007h.01a.078.078,0,0,1,.018-.007l.033-.02.015,0h0a.012.012,0,0,1,.009,0,.1.1,0,0,0,.023-.007.2.2,0,0,1,.077-.021s0,0,0,0a.273.273,0,0,1,.089-.014h10.385l5.13-8.889v-.036l.048-.049a.339.339,0,0,1,.029-.043.046.046,0,0,1,.01-.014v-.007l.045-.044s0,0,0,0l.06-.06h.008s0,0,.007,0l.052-.053h.021a.185.185,0,0,1,.034-.017.289.289,0,0,1,.074-.036.118.118,0,0,1,.033-.017c.015-.005.026-.007.034-.01l.031-.017h.031a.432.432,0,0,1,.077-.014.413.413,0,0,1,.1-.01h10.765a.8.8,0,0,1,.691.4l5.381,9.329a.787.787,0,0,1-.011.8l-10.763,18.645a.79.79,0,0,1-.689.4h-10.3l-5.153,8.927a.8.8,0,0,1-.689.4Zm6.072-9.722-4.687,8.13h8.918l4.93-8.526-4.466-7.732Zm-5.376-9.324-5.156,8.928,4.468,7.729,4.686-8.129,5.156-8.925-.742-1.287-3.726-6.443Zm14.086,4.965,1.828,3.164h9.84l4.93-8.52-4.467-7.729-4.677,8.107a.425.425,0,0,1-.079.118l-.01.012a.472.472,0,0,1-.041.045l-.066.068-.016.012a.9.9,0,0,1-.356.145l-.017,0h-9.508Zm-3.555-6.168h8.925l-4.459-7.722h-8.926Zm21.068-.787,4-6.935h-8.008Zm-15.225-7.73,4.46,7.723,4.457-7.723-4.457-7.738Zm10.313-.8h8.915l-4.456-7.739h-8.928Z" transform="translate(-11931.931 -6963.266)" fill="#0e1013"/>
    </g>
    <path id="Path_2116" data-name="Path 2116" d="M1.19-2.4v-8.081H4.559a2.193,2.193,0,0,1,.984.222,2.476,2.476,0,0,1,.774.592,2.825,2.825,0,0,1,.506.831,2.535,2.535,0,0,1,.182.939,2.794,2.794,0,0,1-.171.967,2.67,2.67,0,0,1-.484.831,2.351,2.351,0,0,1-.751.58,2.169,2.169,0,0,1-.973.216H2.214v2.9ZM2.214-6.211H4.57a1.245,1.245,0,0,0,.575-.131,1.3,1.3,0,0,0,.438-.364,1.79,1.79,0,0,0,.285-.541,2.038,2.038,0,0,0,.1-.649,1.805,1.805,0,0,0-.12-.66,1.788,1.788,0,0,0-.319-.535,1.408,1.408,0,0,0-.467-.353A1.313,1.313,0,0,0,4.5-9.569H2.214ZM19.56-2.342a3.448,3.448,0,0,1-1.554-.347,3.834,3.834,0,0,1-1.2-.922,4.192,4.192,0,0,1-.774-1.315,4.338,4.338,0,0,1-.273-1.514,4.2,4.2,0,0,1,.29-1.548,4.267,4.267,0,0,1,.8-1.309,3.859,3.859,0,0,1,1.212-.9,3.467,3.467,0,0,1,1.519-.336,3.323,3.323,0,0,1,1.548.359,3.964,3.964,0,0,1,1.2.939A4.279,4.279,0,0,1,23.1-7.924a4.26,4.26,0,0,1,.273,1.5,4.2,4.2,0,0,1-.29,1.548,4.253,4.253,0,0,1-.8,1.3,3.834,3.834,0,0,1-1.206.9A3.467,3.467,0,0,1,19.56-2.342Zm-2.766-4.1a3.607,3.607,0,0,0,.2,1.189,3.286,3.286,0,0,0,.563,1.019,2.727,2.727,0,0,0,.876.706,2.464,2.464,0,0,0,1.138.262,2.388,2.388,0,0,0,1.161-.279,2.836,2.836,0,0,0,.871-.728,3.254,3.254,0,0,0,.546-1.019,3.647,3.647,0,0,0,.188-1.15,3.607,3.607,0,0,0-.2-1.189,3.155,3.155,0,0,0-.569-1.013,2.848,2.848,0,0,0-.876-.7A2.4,2.4,0,0,0,19.571-9.6a2.428,2.428,0,0,0-1.161.273,2.8,2.8,0,0,0-.871.717A3.274,3.274,0,0,0,16.987-7.6,3.583,3.583,0,0,0,16.794-6.439Zm16,4.04v-8.081h3.46a2.193,2.193,0,0,1,.984.222,2.476,2.476,0,0,1,.774.592,2.825,2.825,0,0,1,.506.831A2.535,2.535,0,0,1,38.7-7.9a2.779,2.779,0,0,1-.12.814,2.518,2.518,0,0,1-.341.711,2.286,2.286,0,0,1-.535.546,2.086,2.086,0,0,1-.7.33l1.958,3.1H37.8L35.96-5.3h-2.14v2.9Zm1.024-3.813h2.447a1.2,1.2,0,0,0,.575-.137,1.367,1.367,0,0,0,.438-.37,1.79,1.79,0,0,0,.285-.541,2,2,0,0,0,.1-.637,1.73,1.73,0,0,0-.119-.643,1.887,1.887,0,0,0-.319-.535,1.442,1.442,0,0,0-.467-.364,1.266,1.266,0,0,0-.563-.131H33.821ZM54.034-9.569H51.246V-2.4H50.221v-7.17H47.433v-.911h6.6ZM63.2-2.4v-8.081h5.338v.911H64.22v2.7h3.631v.854H64.22V-2.4Zm17.766.057a3.448,3.448,0,0,1-1.554-.347,3.834,3.834,0,0,1-1.2-.922,4.192,4.192,0,0,1-.774-1.315,4.338,4.338,0,0,1-.273-1.514,4.2,4.2,0,0,1,.29-1.548,4.267,4.267,0,0,1,.8-1.309,3.859,3.859,0,0,1,1.212-.9,3.467,3.467,0,0,1,1.519-.336,3.323,3.323,0,0,1,1.548.359,3.964,3.964,0,0,1,1.2.939A4.279,4.279,0,0,1,84.5-7.924a4.261,4.261,0,0,1,.273,1.5,4.2,4.2,0,0,1-.29,1.548,4.252,4.252,0,0,1-.8,1.3,3.834,3.834,0,0,1-1.206.9A3.467,3.467,0,0,1,80.962-2.342ZM78.2-6.439a3.607,3.607,0,0,0,.2,1.189,3.286,3.286,0,0,0,.563,1.019,2.727,2.727,0,0,0,.876.706,2.464,2.464,0,0,0,1.138.262,2.388,2.388,0,0,0,1.161-.279,2.836,2.836,0,0,0,.871-.728,3.254,3.254,0,0,0,.546-1.019,3.647,3.647,0,0,0,.188-1.15,3.607,3.607,0,0,0-.2-1.189,3.155,3.155,0,0,0-.569-1.013,2.847,2.847,0,0,0-.876-.7A2.4,2.4,0,0,0,80.974-9.6a2.428,2.428,0,0,0-1.161.273,2.8,2.8,0,0,0-.871.717A3.274,3.274,0,0,0,78.39-7.6,3.583,3.583,0,0,0,78.2-6.439Zm16,4.04v-8.081h1.024v7.17H99.73V-2.4Zm14.648,0v-8.081h1.024V-2.4Zm.057-9.219v-1.206h.911v1.206Zm14.181,9.276a3.448,3.448,0,0,1-1.554-.347,3.833,3.833,0,0,1-1.2-.922,4.192,4.192,0,0,1-.774-1.315,4.338,4.338,0,0,1-.273-1.514,4.2,4.2,0,0,1,.29-1.548,4.267,4.267,0,0,1,.8-1.309,3.86,3.86,0,0,1,1.212-.9,3.467,3.467,0,0,1,1.519-.336,3.323,3.323,0,0,1,1.548.359,3.964,3.964,0,0,1,1.2.939,4.279,4.279,0,0,1,.774,1.315,4.26,4.26,0,0,1,.273,1.5,4.2,4.2,0,0,1-.29,1.548,4.253,4.253,0,0,1-.8,1.3,3.834,3.834,0,0,1-1.206.9A3.467,3.467,0,0,1,123.085-2.342Zm-2.766-4.1a3.607,3.607,0,0,0,.2,1.189,3.286,3.286,0,0,0,.563,1.019,2.727,2.727,0,0,0,.876.706,2.464,2.464,0,0,0,1.138.262,2.388,2.388,0,0,0,1.161-.279,2.836,2.836,0,0,0,.871-.728,3.254,3.254,0,0,0,.546-1.019,3.647,3.647,0,0,0,.188-1.15,3.607,3.607,0,0,0-.2-1.189,3.155,3.155,0,0,0-.569-1.013,2.848,2.848,0,0,0-.876-.7A2.4,2.4,0,0,0,123.1-9.6a2.428,2.428,0,0,0-1.161.273,2.8,2.8,0,0,0-.871.717,3.274,3.274,0,0,0-.552,1.013A3.584,3.584,0,0,0,120.319-6.439Z" transform="translate(775.986 666.576)" fill="#0e1013"/>
  </g>
</svg>
