<svg xmlns="http://www.w3.org/2000/svg" width="20" height="20" viewBox="0 0 20 20">
  <g id="mail" transform="translate(-0.488 -0.488)">
    <rect id="Rectangle_1784" data-name="Rectangle 1784" width="20" height="20" transform="translate(0.488 0.488)" fill="none"/>
    <g id="mail-2" data-name="mail" transform="translate(1.858 -19.112)">
      <path id="Path_4913" data-name="Path 4913" d="M17.071,24.871a4.315,4.315,0,0,0-4.125-3.038H4.315A4.315,4.315,0,0,0,.19,24.871,4.486,4.486,0,0,0,0,26.148v6.9a4.317,4.317,0,0,0,4.315,4.315h8.631a4.317,4.317,0,0,0,4.315-4.315v-6.9A4.485,4.485,0,0,0,17.071,24.871ZM4.315,23.559h8.631A2.6,2.6,0,0,1,15.5,25.734L8.63,29.48l-6.87-3.746a2.6,2.6,0,0,1,2.555-2.175Zm11.22,9.494a2.6,2.6,0,0,1-2.589,2.589H4.315a2.6,2.6,0,0,1-2.589-2.589V27.684l6.49,3.538a.878.878,0,0,0,.829,0l6.49-3.538Z" transform="translate(0)" fill="#0e1013"/>
    </g>
  </g>
</svg>
