<svg xmlns="http://www.w3.org/2000/svg" width="20" height="20" viewBox="0 0 20 20">
  <g id="phone" transform="translate(-0.442 -0.442)">
    <rect id="Rectangle_1784" data-name="Rectangle 1784" width="20" height="20" transform="translate(0.442 0.442)" fill="none"/>
    <g id="phone-call" transform="translate(1.298 1.819)">
      <g id="Group_3395" data-name="Group 3395" transform="translate(0.539 0)">
        <path id="Path_4912" data-name="Path 4912" d="M17.3,12.657l-2.407-2.407a1.6,1.6,0,0,0-2.665.6,1.638,1.638,0,0,1-1.891,1.032,7.422,7.422,0,0,1-4.47-4.47A1.558,1.558,0,0,1,6.9,5.523a1.6,1.6,0,0,0,.6-2.665L5.092.451a1.717,1.717,0,0,0-2.321,0L1.138,2.085C-.5,3.8,1.31,8.36,5.35,12.4s8.6,5.931,10.315,4.212L17.3,14.978A1.717,1.717,0,0,0,17.3,12.657Z" transform="translate(-0.539 0)" fill="#0e1013"/>
      </g>
    </g>
  </g>
</svg>
