<svg xmlns="http://www.w3.org/2000/svg" width="18" height="18" viewBox="0 0 18 18">
  <g id="arrow" transform="translate(-1525.826 -226.826)">
    <rect id="Rectangle_1789" data-name="Rectangle 1789" width="18" height="18" transform="translate(1525.826 226.826)" fill="none"/>
    <path id="Path_4842" data-name="Path 4842" d="M628.688,559.283l-6.049,5.833a.706.706,0,0,0,0,1.047.769.769,0,0,0,1.086,0l6.591-6.356a.706.706,0,0,0,0-1.047l-6.591-6.356a1.707,1.707,0,0,0-.388-.224h-.388c-.155,0-.232.075-.388.224a1.61,1.61,0,0,0-.233.374v.374c0,.149.078.224.233.373Z" transform="translate(908.388 -323.457)" fill="#0e1013"/>
  </g>
</svg>
