<svg xmlns="http://www.w3.org/2000/svg" xmlns:xlink="http://www.w3.org/1999/xlink" width="1378" height="214" viewBox="0 0 1378 214">
  <defs>
    <linearGradient id="linear-gradient" x1="0.5" x2="0.5" y2="1" gradientUnits="objectBoundingBox">
      <stop offset="0" stop-color="#f4f5f6"/>
      <stop offset="1" stop-color="#bdc1c6"/>
    </linearGradient>
  </defs>
  <g id="smartblogo" transform="translate(-1047.549 -699.59)">
    <rect id="Rectangle_1858" data-name="Rectangle 1858" width="1378" height="214" transform="translate(1047.549 699.59)" fill="none"/>
    <g id="Group_2499" data-name="Group 2499" transform="translate(1049.755 700.947)">
      <path id="Path_2105" data-name="Path 2105" d="M560.57,1407.709c-23.854,0-45.617-7.119-49.8-8.791-1.395-.84-3.348-1.957-2.512-3.908l3.07-14.51c.558-1.957,1.673-3.07,3.069-3.07a5.458,5.458,0,0,1,1.953.279c3.069.834,21.762,7.118,42.268,7.118,18.418,0,30.553-5.722,30.553-20.368,0-18.694-13.252-17.578-31.947-21.489-19.531-3.068-47.571-8.231-47.571-42.822,0-37.671,33.481-43.948,57.756-43.948a166.382,166.382,0,0,1,44.5,6c2.232.561,3.348,1.951,3.068,4.188l-2.511,14.785c-.278,1.954-1.672,2.792-3.9,2.51-3.348-.555-22.322-4.6-37.39-4.6-15.345,0-30.552,3.908-30.552,18.973,0,15.63,15.068,17.856,31.947,20.09,22.88,3.627,47.573,7.392,47.573,43.663C620.281,1397.517,592.8,1407.709,560.57,1407.709Z" transform="translate(-508.056 -1197.306)" fill="url(#linear-gradient)"/>
      <path id="Path_2106" data-name="Path 2106" d="M838.794,1400q0,4.187-4.184,4.183h-22.6c-3.071,0-4.464-1.392-4.464-4.183v-98.63c0-17.3-6.558-22.6-23.158-22.6-18.135,0-36.271,4.882-40.735,5.717V1400q0,4.187-4.186,4.183H716.589q-4.187,0-4.188-4.183v-98.63c0-17.3-6.277-22.6-22.88-22.6-17.854,0-36.827,4.882-41.291,5.717V1400q0,4.187-4.186,4.183H621.163c-3.068,0-4.463-1.392-4.463-4.183V1283.228c0-10.183,3.907-14.791,18.413-19.251,13.813-4.464,39.342-7.677,56.64-7.677,17.578,0,29.437,3.63,37.11,9.906,10.741-4.467,37.945-9.906,58.314-9.906,33.48,0,50.778,9.35,50.778,41.018V1400Z" transform="translate(-465.133 -1197.264)" fill="url(#linear-gradient)"/>
      <path id="Path_2107" data-name="Path 2107" d="M931.371,1375.2c0,20.09-5.44,24.138-24.411,28.6-9.069,2.23-21.765,3.911-37.108,3.911-27.486,0-65.151-1.961-65.151-46.184,0-35.986,21.483-38.781,45.618-43.1l50.083-8.23v-10.185c0-8.505-.558-14.233-8.51-17.577-4.464-1.951-11.859-2.791-22.6-2.791-19.811,0-39.061,5.443-48.127,7.673a6.306,6.306,0,0,1-1.955.279,3.621,3.621,0,0,1-3.349-2.509l-3.347-15.069c-.839-3.068,1.118-3.908,3.069-4.746a209.342,209.342,0,0,1,59.151-9.066c19.81,0,32.5,2.789,41.015,7.394,14.229,7.953,15.625,20.927,15.625,35.435Zm-72.822-36.55c-11.3,2.236-22.04,3.349-22.04,22.325,0,23.294,19.528,25.251,34.038,25.251,11.3,0,21.206-1.4,29.714-4.463v-50.086Z" transform="translate(-390.86 -1197.306)" fill="url(#linear-gradient)"/>
      <path id="Path_2108" data-name="Path 2108" d="M924.341,1282.765c0-11.295,4.882-14.505,16.741-18.69s31.389-7.4,54.129-7.674c3.347,0,6.276.555,6.276,4.747v15.622c0,2.231-.557,4.187-3.905,4.187-17.3,0-31.389,1.4-41.993,4.464v114.674q0,4.185-4.185,4.184H928.386q-4.185,0-4.186-4.184V1282.765Z" transform="translate(-343.651 -1197.227)" fill="url(#linear-gradient)"/>
      <path id="Path_2109" data-name="Path 2109" d="M1089.555,1408.975c.834,3.628-.56,4.882-2.79,5.72-5.163,1.952-16.742,4.88-34.043,4.88-29.714,0-44.222-11.575-44.222-41.293V1233.2c0-2.509,1.4-4.184,4.464-4.6l22.321-4.743c3.349-.838,4.743,1.676,4.743,4.19v44.5h41.715q4.181,0,4.184,4.183v15.069q0,4.185-4.184,4.184h-41.715V1378.7c0,13.256,6,17.861,20.367,17.861,8.511,0,17.3-1.953,22.6-3.071,2.231-.559,3.624.28,4.184,2.792Z" transform="translate(-310.349 -1210.152)" fill="url(#linear-gradient)"/>
      <path id="Path_2110" data-name="Path 2110" d="M1215.152,1424.382c-20.647,0-38.775-3.348-48.688-6.279-14.23-4.461-15.065-11.856-15.065-22.877V1223.5a4.456,4.456,0,0,1,4.19-4.888l22.6-4.462c3.346-.834,4.74,1.671,4.74,4.183v45.62l-.138,15.348c4.464-1.394,22.742-6.284,40.037-6.284,44.227,0,59.15,21.491,59.15,74.5C1281.563,1400.386,1268.163,1424.382,1215.152,1424.382Zm1.259-128.626c-12.7,0-30,4.462-33.762,5.165v97.235c2.512.837,14.234,3.9,30.554,3.9,27.481,0,36.548-11.576,36.548-53.846C1249.752,1306.359,1242.915,1295.756,1216.411,1295.756Z" transform="translate(-253.89 -1213.982)" fill="url(#linear-gradient)"/>
      <path id="Path_2111" data-name="Path 2111" d="M1405.713,1335.859a45.932,45.932,0,0,1-.281,6.557c0,2.512-1.672,5.162-4.6,5.162h-95.7c.274,13.53,3.622,21.206,10.181,27.484,7.673,7.394,18.97,9.907,35.431,9.907,15.627,0,27.488-3.35,39.344-6.56a4.141,4.141,0,0,1,1.952-.279c1.953,0,2.795,0,3.633,3.068l2.785,12.421a4.855,4.855,0,0,1,.281,1.669c0,1.675-1.119,3.07-3.066,3.908-10.189,4.188-28.326,8.515-48.972,8.515-53.849,0-73.1-22.882-73.1-75.338,0-49.528,12.418-76.172,66.544-76.172,28.323,0,44.78,7.674,54.688,22.041,8.509,12.416,11.017,29.438,11.017,51.061v6.557Zm-31.669-9.907c0-9.622-.278-17.571-2.509-26.086-4.188-16.461-12.978-21.483-31.667-21.483-20.093,0-28.882,5.441-32.506,20.925-2.23,8.507-2.23,17.577-2.514,26.644Z" transform="translate(-205.615 -1197.306)" fill="url(#linear-gradient)"/>
      <path id="Path_2112" data-name="Path 2112" d="M1529.31,1335.859a46.963,46.963,0,0,1-.275,6.557c0,2.512-1.676,5.162-4.6,5.162h-95.706c.28,13.53,3.629,21.206,10.188,27.484,7.674,7.394,18.974,9.907,35.436,9.907,15.626,0,27.481-3.35,39.339-6.56a4.141,4.141,0,0,1,1.951-.279c1.954,0,2.792,0,3.63,3.068l2.789,12.421a4.913,4.913,0,0,1,.278,1.669c0,1.675-1.115,3.07-3.066,3.908-10.184,4.188-28.324,8.515-48.964,8.515-53.855,0-73.105-22.882-73.105-75.338,0-49.528,12.413-76.172,66.545-76.172,28.317,0,44.782,7.674,54.687,22.041,8.512,12.416,11.019,29.438,11.019,51.061v6.557Zm-31.668-9.907c0-9.622-.278-17.571-2.509-26.086-4.188-16.461-12.973-21.483-31.668-21.483-20.088,0-28.878,5.441-32.507,20.925-2.232,8.507-2.232,17.577-2.507,26.644Z" transform="translate(-156.783 -1197.306)" fill="url(#linear-gradient)"/>
    </g>
  </g>
</svg>
